# xmcd
#
# Track frame offsets:
#	150
#	15643
#	32277
#	46922
#	60971
#	75170
#	89041
#	109123
#	126213
#	143425
#	158122
#	174041
#	188585
#	205529
#
# Disc length: 2942 seconds
#
# Revision: 0
# Processed by: cddbd v1.5.2PL0 Copyright (c) Steve Scherf et al.
# Submitted via: EasyCDDAExtractor 15.3.0.1
#
DISCID=960b7c0e
DTITLE=Yuri - Mi Tributo Al Festival Dos
DYEAR=2013
DGENRE=Latin
TTITLE0=Tiempos Mejores
TTITLE1=Cuando Pienso En Ti
TTITLE2=Sera Mañana
TTITLE3=Compas De Espera
TTITLE4=El Fandango Aqui
TTITLE5=No Prometas Lo Que No Sera (A Dueto Con Jorge Muñiz)
TTITLE6=El Triste
TTITLE7=Hombre
TTITLE8=En Las Buenas Y En Las Malas
TTITLE9=Lo Que Paso, Paso
TTITLE10=En Mi Soledad
TTITLE11=Una Cancion No Es Suficiente
TTITLE12=La Felicidad
TTITLE13=Mi Exito
EXTD=
EXTT0=
EXTT1=
EXTT2=
EXTT3=
EXTT4=
EXTT5=
EXTT6=
EXTT7=
EXTT8=
EXTT9=
EXTT10=
EXTT11=
EXTT12=
EXTT13=
PLAYORDER=
